<?xml version="1.0" encoding="UTF-8" standalone="no"?>
<svg xmlns="http://www.w3.org/2000/svg" style="width:100vw; height:100vh; display:block;" viewBox="0 0 2100 2100" preserveAspectRatio="xMidYMid meet">
  <style>
    .backbone { fill: none; stroke: #000; stroke-width: 6; }
    .tick { stroke: #000; stroke-width: 2; }
    .cut { stroke: #000; stroke-width: 3; }
    .leader { stroke: #000; stroke-width: 2; }
    .label { font-family: sans-serif; font-size: 22px; }
    .center1 { font-family: sans-serif; font-size: 34px; font-weight: 600; }
    .center2 { font-family: sans-serif; font-size: 26px; }
    .tick_label { font-family: sans-serif; font-size: 18px; }
  </style>
  <rect x="0" y="0" width="2100" height="2100" fill="white" />
  <circle class="backbone" cx="1050" cy="1050" r="650" />
  <line class="tick" x1="1050" y1="428" x2="1050" y2="400" stroke-width="4" />
  <text class="tick_label" x="1050" y="444" text-anchor="middle" dominant-baseline="middle">1</text>
  <line class="tick" x1="1081.01" y1="418.761" x2="1081.89" y2="400.783" stroke-width="2" />
  <line class="tick" x1="1111.95" y1="421.043" x2="1113.71" y2="403.13" stroke-width="2" />
  <line class="tick" x1="1142.73" y1="424.84" x2="1145.37" y2="407.035" stroke-width="2" />
  <line class="tick" x1="1173.3" y1="430.144" x2="1176.81" y2="412.49" stroke-width="2" />
  <line class="tick" x1="1203.56" y1="436.94" x2="1207.94" y2="419.48" stroke-width="2" />
  <line class="tick" x1="1233.46" y1="445.214" x2="1238.69" y2="427.989" stroke-width="2" />
  <line class="tick" x1="1262.91" y1="454.944" x2="1268.98" y2="437.996" stroke-width="2" />
  <line class="tick" x1="1288.03" y1="475.347" x2="1298.74" y2="449.478" stroke-width="4" />
  <text class="tick_label" x="1281.91" y="490.129" text-anchor="middle" dominant-baseline="middle">298</text>
  <line class="tick" x1="1320.21" y1="478.679" x2="1327.91" y2="462.407" stroke-width="2" />
  <line class="tick" x1="1347.92" y1="492.626" x2="1356.41" y2="476.751" stroke-width="2" />
  <line class="tick" x1="1374.91" y1="507.916" x2="1384.17" y2="492.476" stroke-width="2" />
  <line class="tick" x1="1401.12" y1="524.511" x2="1411.12" y2="509.545" stroke-width="2" />
  <line class="tick" x1="1426.48" y1="542.373" x2="1437.2" y2="527.915" stroke-width="2" />
  <line class="tick" x1="1450.94" y1="561.457" x2="1462.36" y2="547.543" stroke-width="2" />
  <line class="tick" x1="1474.43" y1="581.719" x2="1486.51" y2="568.382" stroke-width="2" />
  <line class="tick" x1="1489.82" y1="610.18" x2="1509.62" y2="590.381" stroke-width="4" />
  <text class="tick_label" x="1478.51" y="621.493" text-anchor="middle" dominant-baseline="middle">595</text>
  <line class="tick" x1="1518.28" y1="625.575" x2="1531.62" y2="613.487" stroke-width="2" />
  <line class="tick" x1="1538.54" y1="649.063" x2="1552.46" y2="637.644" stroke-width="2" />
  <line class="tick" x1="1557.63" y1="673.518" x2="1572.08" y2="662.795" stroke-width="2" />
  <line class="tick" x1="1575.49" y1="698.88" x2="1590.46" y2="688.879" stroke-width="2" />
  <line class="tick" x1="1592.08" y1="725.087" x2="1607.52" y2="715.833" stroke-width="2" />
  <line class="tick" x1="1607.37" y1="752.077" x2="1623.25" y2="743.592" stroke-width="2" />
  <line class="tick" x1="1621.32" y1="779.785" x2="1637.59" y2="772.089" stroke-width="2" />
  <line class="tick" x1="1624.65" y1="811.971" x2="1650.52" y2="801.256" stroke-width="4" />
  <text class="tick_label" x="1609.87" y="818.094" text-anchor="middle" dominant-baseline="middle">892</text>
  <line class="tick" x1="1645.06" y1="837.086" x2="1662" y2="831.022" stroke-width="2" />
  <line class="tick" x1="1654.79" y1="866.54" x2="1672.01" y2="861.315" stroke-width="2" />
  <line class="tick" x1="1663.06" y1="896.437" x2="1680.52" y2="892.063" stroke-width="2" />
  <line class="tick" x1="1669.86" y1="926.703" x2="1687.51" y2="923.191" stroke-width="2" />
  <line class="tick" x1="1675.16" y1="957.266" x2="1692.96" y2="954.625" stroke-width="2" />
  <line class="tick" x1="1678.96" y1="988.053" x2="1696.87" y2="986.289" stroke-width="2" />
  <line class="tick" x1="1681.24" y1="1018.99" x2="1699.22" y2="1018.11" stroke-width="2" />
  <line class="tick" x1="1672" y1="1050" x2="1700" y2="1050" stroke-width="4" />
  <text class="tick_label" x="1646" y="1050" text-anchor="middle" dominant-baseline="middle">1189</text>
  <line class="tick" x1="1681.24" y1="1081.01" x2="1699.22" y2="1081.89" stroke-width="2" />
  <line class="tick" x1="1678.96" y1="1111.95" x2="1696.87" y2="1113.71" stroke-width="2" />
  <line class="tick" x1="1675.16" y1="1142.73" x2="1692.96" y2="1145.37" stroke-width="2" />
  <line class="tick" x1="1669.86" y1="1173.3" x2="1687.51" y2="1176.81" stroke-width="2" />
  <line class="tick" x1="1663.06" y1="1203.56" x2="1680.52" y2="1207.94" stroke-width="2" />
  <line class="tick" x1="1654.79" y1="1233.46" x2="1672.01" y2="1238.69" stroke-width="2" />
  <line class="tick" x1="1645.06" y1="1262.91" x2="1662" y2="1268.98" stroke-width="2" />
  <line class="tick" x1="1624.65" y1="1288.03" x2="1650.52" y2="1298.74" stroke-width="4" />
  <text class="tick_label" x="1609.87" y="1281.91" text-anchor="middle" dominant-baseline="middle">1486</text>
  <line class="tick" x1="1621.32" y1="1320.21" x2="1637.59" y2="1327.91" stroke-width="2" />
  <line class="tick" x1="1607.37" y1="1347.92" x2="1623.25" y2="1356.41" stroke-width="2" />
  <line class="tick" x1="1592.08" y1="1374.91" x2="1607.52" y2="1384.17" stroke-width="2" />
  <line class="tick" x1="1575.49" y1="1401.12" x2="1590.46" y2="1411.12" stroke-width="2" />
  <line class="tick" x1="1557.63" y1="1426.48" x2="1572.08" y2="1437.2" stroke-width="2" />
  <line class="tick" x1="1538.54" y1="1450.94" x2="1552.46" y2="1462.36" stroke-width="2" />
  <line class="tick" x1="1518.28" y1="1474.43" x2="1531.62" y2="1486.51" stroke-width="2" />
  <line class="tick" x1="1489.82" y1="1489.82" x2="1509.62" y2="1509.62" stroke-width="4" />
  <text class="tick_label" x="1478.51" y="1478.51" text-anchor="middle" dominant-baseline="middle">1783</text>
  <line class="tick" x1="1474.43" y1="1518.28" x2="1486.51" y2="1531.62" stroke-width="2" />
  <line class="tick" x1="1450.94" y1="1538.54" x2="1462.36" y2="1552.46" stroke-width="2" />
  <line class="tick" x1="1426.48" y1="1557.63" x2="1437.2" y2="1572.08" stroke-width="2" />
  <line class="tick" x1="1401.12" y1="1575.49" x2="1411.12" y2="1590.46" stroke-width="2" />
  <line class="tick" x1="1374.91" y1="1592.08" x2="1384.17" y2="1607.52" stroke-width="2" />
  <line class="tick" x1="1347.92" y1="1607.37" x2="1356.41" y2="1623.25" stroke-width="2" />
  <line class="tick" x1="1320.21" y1="1621.32" x2="1327.91" y2="1637.59" stroke-width="2" />
  <line class="tick" x1="1288.03" y1="1624.65" x2="1298.74" y2="1650.52" stroke-width="4" />
  <text class="tick_label" x="1281.91" y="1609.87" text-anchor="middle" dominant-baseline="middle">2080</text>
  <line class="tick" x1="1262.91" y1="1645.06" x2="1268.98" y2="1662" stroke-width="2" />
  <line class="tick" x1="1233.46" y1="1654.79" x2="1238.69" y2="1672.01" stroke-width="2" />
  <line class="tick" x1="1203.56" y1="1663.06" x2="1207.94" y2="1680.52" stroke-width="2" />
  <line class="tick" x1="1173.3" y1="1669.86" x2="1176.81" y2="1687.51" stroke-width="2" />
  <line class="tick" x1="1142.73" y1="1675.16" x2="1145.37" y2="1692.96" stroke-width="2" />
  <line class="tick" x1="1111.95" y1="1678.96" x2="1113.71" y2="1696.87" stroke-width="2" />
  <line class="tick" x1="1081.01" y1="1681.24" x2="1081.89" y2="1699.22" stroke-width="2" />
  <line class="tick" x1="1050" y1="1672" x2="1050" y2="1700" stroke-width="4" />
  <text class="tick_label" x="1050" y="1656" text-anchor="middle" dominant-baseline="middle">2378</text>
  <line class="tick" x1="1018.99" y1="1681.24" x2="1018.11" y2="1699.22" stroke-width="2" />
  <line class="tick" x1="988.053" y1="1678.96" x2="986.289" y2="1696.87" stroke-width="2" />
  <line class="tick" x1="957.266" y1="1675.16" x2="954.625" y2="1692.96" stroke-width="2" />
  <line class="tick" x1="926.703" y1="1669.86" x2="923.191" y2="1687.51" stroke-width="2" />
  <line class="tick" x1="896.437" y1="1663.06" x2="892.063" y2="1680.52" stroke-width="2" />
  <line class="tick" x1="866.54" y1="1654.79" x2="861.315" y2="1672.01" stroke-width="2" />
  <line class="tick" x1="837.086" y1="1645.06" x2="831.022" y2="1662" stroke-width="2" />
  <line class="tick" x1="811.971" y1="1624.65" x2="801.256" y2="1650.52" stroke-width="4" />
  <text class="tick_label" x="818.094" y="1609.87" text-anchor="middle" dominant-baseline="middle">2675</text>
  <line class="tick" x1="779.785" y1="1621.32" x2="772.089" y2="1637.59" stroke-width="2" />
  <line class="tick" x1="752.077" y1="1607.37" x2="743.592" y2="1623.25" stroke-width="2" />
  <line class="tick" x1="725.087" y1="1592.08" x2="715.833" y2="1607.52" stroke-width="2" />
  <line class="tick" x1="698.88" y1="1575.49" x2="688.879" y2="1590.46" stroke-width="2" />
  <line class="tick" x1="673.518" y1="1557.63" x2="662.795" y2="1572.08" stroke-width="2" />
  <line class="tick" x1="649.063" y1="1538.54" x2="637.644" y2="1552.46" stroke-width="2" />
  <line class="tick" x1="625.575" y1="1518.28" x2="613.487" y2="1531.62" stroke-width="2" />
  <line class="tick" x1="610.18" y1="1489.82" x2="590.381" y2="1509.62" stroke-width="4" />
  <text class="tick_label" x="621.493" y="1478.51" text-anchor="middle" dominant-baseline="middle">2972</text>
  <line class="tick" x1="581.719" y1="1474.43" x2="568.382" y2="1486.51" stroke-width="2" />
  <line class="tick" x1="561.457" y1="1450.94" x2="547.543" y2="1462.36" stroke-width="2" />
  <line class="tick" x1="542.373" y1="1426.48" x2="527.915" y2="1437.2" stroke-width="2" />
  <line class="tick" x1="524.511" y1="1401.12" x2="509.545" y2="1411.12" stroke-width="2" />
  <line class="tick" x1="507.916" y1="1374.91" x2="492.476" y2="1384.17" stroke-width="2" />
  <line class="tick" x1="492.626" y1="1347.92" x2="476.751" y2="1356.41" stroke-width="2" />
  <line class="tick" x1="478.679" y1="1320.21" x2="462.407" y2="1327.91" stroke-width="2" />
  <line class="tick" x1="475.347" y1="1288.03" x2="449.478" y2="1298.74" stroke-width="4" />
  <text class="tick_label" x="490.129" y="1281.91" text-anchor="middle" dominant-baseline="middle">3269</text>
  <line class="tick" x1="454.944" y1="1262.91" x2="437.996" y2="1268.98" stroke-width="2" />
  <line class="tick" x1="445.214" y1="1233.46" x2="427.989" y2="1238.69" stroke-width="2" />
  <line class="tick" x1="436.94" y1="1203.56" x2="419.48" y2="1207.94" stroke-width="2" />
  <line class="tick" x1="430.144" y1="1173.3" x2="412.49" y2="1176.81" stroke-width="2" />
  <line class="tick" x1="424.84" y1="1142.73" x2="407.035" y2="1145.37" stroke-width="2" />
  <line class="tick" x1="421.043" y1="1111.95" x2="403.13" y2="1113.71" stroke-width="2" />
  <line class="tick" x1="418.761" y1="1081.01" x2="400.783" y2="1081.89" stroke-width="2" />
  <line class="tick" x1="428" y1="1050" x2="400" y2="1050" stroke-width="4" />
  <text class="tick_label" x="454" y="1050" text-anchor="middle" dominant-baseline="middle">3566</text>
  <line class="tick" x1="418.761" y1="1018.99" x2="400.783" y2="1018.11" stroke-width="2" />
  <line class="tick" x1="421.043" y1="988.053" x2="403.13" y2="986.289" stroke-width="2" />
  <line class="tick" x1="424.84" y1="957.266" x2="407.035" y2="954.625" stroke-width="2" />
  <line class="tick" x1="430.144" y1="926.703" x2="412.49" y2="923.191" stroke-width="2" />
  <line class="tick" x1="436.94" y1="896.437" x2="419.48" y2="892.063" stroke-width="2" />
  <line class="tick" x1="445.214" y1="866.54" x2="427.989" y2="861.315" stroke-width="2" />
  <line class="tick" x1="454.944" y1="837.086" x2="437.996" y2="831.022" stroke-width="2" />
  <line class="tick" x1="475.347" y1="811.971" x2="449.478" y2="801.256" stroke-width="4" />
  <text class="tick_label" x="490.129" y="818.094" text-anchor="middle" dominant-baseline="middle">3863</text>
  <line class="tick" x1="478.679" y1="779.785" x2="462.407" y2="772.089" stroke-width="2" />
  <line class="tick" x1="492.626" y1="752.077" x2="476.751" y2="743.592" stroke-width="2" />
  <line class="tick" x1="507.916" y1="725.087" x2="492.476" y2="715.833" stroke-width="2" />
  <line class="tick" x1="524.511" y1="698.88" x2="509.545" y2="688.879" stroke-width="2" />
  <line class="tick" x1="542.373" y1="673.518" x2="527.915" y2="662.795" stroke-width="2" />
  <line class="tick" x1="561.457" y1="649.063" x2="547.543" y2="637.644" stroke-width="2" />
  <line class="tick" x1="581.719" y1="625.575" x2="568.382" y2="613.487" stroke-width="2" />
  <line class="tick" x1="610.18" y1="610.18" x2="590.381" y2="590.381" stroke-width="4" />
  <text class="tick_label" x="621.493" y="621.493" text-anchor="middle" dominant-baseline="middle">4160</text>
  <line class="tick" x1="625.575" y1="581.719" x2="613.487" y2="568.382" stroke-width="2" />
  <line class="tick" x1="649.063" y1="561.457" x2="637.644" y2="547.543" stroke-width="2" />
  <line class="tick" x1="673.518" y1="542.373" x2="662.795" y2="527.915" stroke-width="2" />
  <line class="tick" x1="698.88" y1="524.511" x2="688.879" y2="509.545" stroke-width="2" />
  <line class="tick" x1="725.087" y1="507.916" x2="715.833" y2="492.476" stroke-width="2" />
  <line class="tick" x1="752.077" y1="492.626" x2="743.592" y2="476.751" stroke-width="2" />
  <line class="tick" x1="779.785" y1="478.679" x2="772.089" y2="462.407" stroke-width="2" />
  <line class="tick" x1="811.971" y1="475.347" x2="801.256" y2="449.478" stroke-width="4" />
  <text class="tick_label" x="818.094" y="490.129" text-anchor="middle" dominant-baseline="middle">4457</text>
  <line class="tick" x1="837.086" y1="454.944" x2="831.022" y2="437.996" stroke-width="2" />
  <line class="tick" x1="866.54" y1="445.214" x2="861.315" y2="427.989" stroke-width="2" />
  <line class="tick" x1="896.437" y1="436.94" x2="892.063" y2="419.48" stroke-width="2" />
  <line class="tick" x1="926.703" y1="430.144" x2="923.191" y2="412.49" stroke-width="2" />
  <line class="tick" x1="957.266" y1="424.84" x2="954.625" y2="407.035" stroke-width="2" />
  <line class="tick" x1="988.053" y1="421.043" x2="986.289" y2="403.13" stroke-width="2" />
  <line class="tick" x1="1018.99" y1="418.761" x2="1018.11" y2="400.783" stroke-width="2" />
  <line class="cut" x1="1362.77" y1="496.221" x2="1380.47" y2="464.875" />
  <line class="cut" x1="1437.03" y1="545.321" x2="1458.94" y2="516.754" />
  <line class="cut" x1="1610.47" y1="749.381" x2="1642.19" y2="732.365" />
  <line class="cut" x1="1676.99" y1="1156.67" x2="1712.48" y2="1162.7" />
  <line class="cut" x1="1672.79" y1="1178.97" x2="1708.04" y2="1186.27" />
  <line class="cut" x1="1671.74" y1="1183.9" x2="1706.94" y2="1191.48" />
  <line class="cut" x1="1669.16" y1="1195.38" x2="1704.21" y2="1203.61" />
  <line class="cut" x1="1666.98" y1="1204.37" x2="1701.9" y2="1213.11" />
  <line class="cut" x1="1666.16" y1="1207.63" x2="1701.03" y2="1216.55" />
  <line class="cut" x1="1664.46" y1="1214.14" x2="1699.24" y2="1223.43" />
  <line class="cut" x1="1663.8" y1="1216.57" x2="1698.54" y2="1226" />
  <line class="cut" x1="1649.8" y1="1261.5" x2="1683.75" y2="1273.47" />
  <line class="cut" x1="1639.7" y1="1288.23" x2="1673.07" y2="1301.72" />
  <line class="cut" x1="1636.5" y1="1296.01" x2="1669.69" y2="1309.93" />
  <line class="cut" x1="1612.05" y1="1347.65" x2="1643.86" y2="1364.5" />
  <line class="cut" x1="1479.53" y1="1519.04" x2="1503.84" y2="1545.59" />
  <line class="cut" x1="1478.29" y1="1520.18" x2="1502.53" y2="1546.79" />
  <line class="cut" x1="1356.9" y1="1607.06" x2="1374.27" y2="1638.59" />
  <line class="cut" x1="977.031" y1="1681.8" x2="972.9" y2="1717.56" />
  <line class="cut" x1="874.12" y1="1661.2" x2="864.165" y2="1695.79" />
  <line class="cut" x1="465.143" y1="1299.88" x2="432.037" y2="1314.02" />
  <line class="cut" x1="433.223" y1="1205.19" x2="398.311" y2="1213.97" />
  <line class="cut" x1="416.838" y1="989.988" x2="380.998" y2="986.591" />
  <line class="cut" x1="1044.96" y1="414.02" x2="1044.67" y2="378.021" />
  <line class="leader" x1="1383.42" y1="459.65" x2="1418.83" y2="396.958" />
  <text class="label" x="1426.83" y="396.958" text-anchor="start" dominant-baseline="middle">NdeI (390)</text>
  <line class="leader" x1="1462.59" y1="511.993" x2="1542.92" y2="407.248" />
  <text class="label" x="1550.92" y="407.248" text-anchor="start" dominant-baseline="middle">SnaBI (496)</text>
  <line class="leader" x1="1647.48" y1="729.529" x2="1710.93" y2="695.497" />
  <text class="label" x="1718.93" y="695.497" text-anchor="start" dominant-baseline="middle">BsaBI (817)</text>
  <line class="leader" x1="1718.4" y1="1163.71" x2="1809.95" y2="1058.69" />
  <text class="label" x="1817.95" y="1058.69" text-anchor="start" dominant-baseline="middle">BspDI ClaI (1317)</text>
  <line class="leader" x1="1713.91" y1="1187.49" x2="1841.2" y2="1108.1" />
  <text class="label" x="1849.2" y="1108.1" text-anchor="start" dominant-baseline="middle">AsiSI (1344)</text>
  <line class="leader" x1="1712.8" y1="1192.75" x2="1871.9" y2="1138.62" />
  <text class="label" x="1879.9" y="1138.62" text-anchor="start" dominant-baseline="middle">AscI (1350)</text>
  <line class="leader" x1="1710.05" y1="1204.98" x2="1900.07" y2="1180.29" />
  <text class="label" x="1908.07" y="1180.29" text-anchor="start" dominant-baseline="middle">HindIII HindIII-HF (1364)</text>
  <line class="leader" x1="1707.73" y1="1214.56" x2="1926.78" y2="1221.18" />
  <text class="label" x="1934.78" y="1221.18" text-anchor="start" dominant-baseline="middle">NheI-HF (1375)</text>
  <line class="leader" x1="1706.85" y1="1218.04" x2="1953.46" y2="1256.09" />
  <text class="label" x="1961.46" y="1256.09" text-anchor="start" dominant-baseline="middle">BmtI-HF (1379)</text>
  <line class="leader" x1="1705.03" y1="1224.97" x2="1977.48" y2="1297.75" />
  <text class="label" x="1985.48" y="1297.75" text-anchor="start" dominant-baseline="middle">MluI-HF (1387)</text>
  <line class="leader" x1="1704.33" y1="1227.57" x2="1937.66" y2="1316.02" />
  <text class="label" x="1945.66" y="1316.02" text-anchor="start" dominant-baseline="middle">BsiWI-HF BsiWI (1390)</text>
  <line class="leader" x1="1689.41" y1="1275.47" x2="1875.79" y2="1390.76" />
  <text class="label" x="1883.79" y="1390.76" text-anchor="start" dominant-baseline="middle">EcoRV-HF EcoRV (1446)</text>
  <line class="leader" x1="1678.64" y1="1303.96" x2="1819.65" y2="1433.71" />
  <text class="label" x="1827.65" y="1433.71" text-anchor="start" dominant-baseline="middle">PmeI (1480)</text>
  <line class="leader" x1="1675.23" y1="1312.25" x2="1774.72" y2="1447.69" />
  <text class="label" x="1782.72" y="1447.69" text-anchor="start" dominant-baseline="middle">FseI (1490)</text>
  <line class="leader" x1="1649.17" y1="1367.31" x2="1696.63" y2="1509.62" />
  <text class="label" x="1704.63" y="1509.62" text-anchor="start" dominant-baseline="middle">AleI-v2 (1558)</text>
  <line class="leader" x1="1507.89" y1="1550.02" x2="1597.04" y2="1647.37" />
  <text class="label" x="1605.04" y="1647.37" text-anchor="start" dominant-baseline="middle">SphI-HF SphI (1817)</text>
  <line class="leader" x1="1506.57" y1="1551.23" x2="1555.06" y2="1604.45" />
  <text class="label" x="1563.06" y="1604.45" text-anchor="start" dominant-baseline="middle">NsiI NsiI-HF (1819)</text>
  <line class="leader" x1="1377.16" y1="1643.84" x2="1440.86" y2="1759.46" />
  <text class="label" x="1448.86" y="1759.46" text-anchor="start" dominant-baseline="middle">PmlI (1997)</text>
  <line class="leader" x1="972.212" y1="1723.52" x2="963.951" y2="1795.05" />
  <text class="label" x="955.951" y="1795.05" text-anchor="end" dominant-baseline="middle">DraIII-HF (2465)</text>
  <line class="leader" x1="862.505" y1="1701.56" x2="826.002" y2="1828.41" />
  <text class="label" x="818.002" y="1828.41" text-anchor="end" dominant-baseline="middle">PsiI-v2 (2590)</text>
  <line class="leader" x1="426.52" y1="1316.38" x2="360.31" y2="1344.66" />
  <text class="label" x="352.31" y="1344.66" text-anchor="end" dominant-baseline="middle">XmnI (3261)</text>
  <line class="leader" x1="392.493" y1="1215.43" x2="264.482" y2="1247.64" />
  <text class="label" x="256.482" y="1247.64" text-anchor="end" dominant-baseline="middle">ScaI-HF (3380)</text>
  <line class="leader" x1="375.025" y1="986.025" x2="303.346" y2="979.231" />
  <text class="label" x="295.346" y="979.231" text-anchor="end" dominant-baseline="middle">FspI (3638)</text>
  <line class="leader" x1="1044.62" y1="372.021" x2="1043.58" y2="240.025" />
  <text class="label" x="1035.58" y="240.025" text-anchor="end" dominant-baseline="middle">PciI (4749)</text>
  <text class="center1" x="1050" y="1032" text-anchor="middle" dominant-baseline="middle">pAAV-AC-Myc-DDK</text>
  <text class="center2" x="1050" y="1072" text-anchor="middle" dominant-baseline="middle">4754 bp</text>
</svg>
